<?xml version="1.0" encoding="UTF-8" standalone="no"?>
<svg width="815" height="572" viewBox="0 0 815 572" fill="none" xmlns="http://www.w3.org/2000/svg">
<g clip-path="url(#clip0_1_8)">
<path d="M141.658 44.9515C97.6962 81.586 62.6899 137.759 38.267 180.092C13.844 224.868 0.00427246 257.432 0.00427246 286.739C0.00427246 315.233 13.844 347.797 38.267 392.572C62.6899 435.719 97.6962 491.078 141.658 527.713C185.619 564.347 237.721 583.071 295.522 563.533C353.324 546.437 417.637 491.078 484.394 443.86C617.906 333.143 700.13 381.175 749.79 381.989C798.636 391.758 814.104 353.495 814.104 286.739C814.104 219.169 798.636 180.092 749.79 189.047C737.579 189.047 724.553 192.304 709.085 194.746C658.611 202.887 586.97 211.842 484.394 127.176C417.637 79.1437 353.324 24.599 295.522 7.50293C280.055 2.61833 264.587 0.176026 249.933 0.176026C210.042 0.176026 173.407 17.2721 141.658 44.9515Z" fill="url(#paint0_linear_1_8)"/>
</g>
<defs>
<linearGradient id="paint0_linear_1_8" x1="0.00427246" y1="285.655" x2="814.104" y2="285.655" gradientUnits="userSpaceOnUse">
<stop stop-color="#FAFBFE"/>
<stop offset="1" stop-color="#0030FF"/>
</linearGradient>
<clipPath id="clip0_1_8">
<rect width="815" height="572" fill="white"/>
</clipPath>
</defs>
</svg>
